<?xml version="1.0" encoding="iso-8859-1"?>
<!-- Generator: Adobe Illustrator 19.0.0, SVG Export Plug-In . SVG Version: 6.00 Build 0)  -->
<svg version="1.1" id="Capa_1" xmlns="http://www.w3.org/2000/svg" xmlns:xlink="http://www.w3.org/1999/xlink" x="0px" y="0px"
	 viewBox="0 0 511.985 511.985" style="enable-background:new 0 0 511.985 511.985;" xml:space="preserve">
<g>
	<g>
		<path d="M221.636,290.375c-9.303-9.294-21.669-14.423-34.821-14.423s-25.518,5.121-34.821,14.423s-14.424,21.661-14.424,34.821
			c0,13.152,5.121,25.51,14.424,34.813c9.303,9.294,21.669,14.423,34.821,14.423c13.152,0,25.518-5.121,34.821-14.423
			s14.423-21.661,14.423-34.813C236.059,312.036,230.938,299.678,221.636,290.375z M209.559,347.933
			c-12.153,12.153-33.345,12.153-45.498,0c-6.077-6.077-9.422-14.15-9.422-22.745c0-8.603,3.346-16.677,9.422-22.753
			c6.077-6.068,14.159-9.422,22.753-9.422c8.586,0,16.668,3.354,22.745,9.422c6.077,6.077,9.422,14.15,9.422,22.753
			C218.981,333.783,215.636,341.856,209.559,347.933z"/>
	</g>
</g>
<g>
	<g>
		<path d="M146.787,434.303l-69.088-69.088c-3.328-3.337-8.739-3.337-12.068,0c-3.337,3.337-3.337,8.731,0,12.068l69.088,69.088
			c1.664,1.664,3.849,2.501,6.034,2.501s4.37-0.836,6.034-2.501C150.124,443.034,150.124,437.64,146.787,434.303z"/>
	</g>
</g>
<g>
	<g>
		<path d="M152.548,405.516c-3.328-3.337-8.731-3.337-12.068,0l-17.274,17.266c-3.337,3.337-3.337,8.731,0,12.068
			c1.664,1.664,3.849,2.501,6.034,2.501c2.185,0,4.37-0.828,6.034-2.501l17.274-17.266
			C155.885,414.247,155.885,408.853,152.548,405.516z"/>
	</g>
</g>
<g>
	<g>
		<path d="M106.495,359.463c-3.328-3.337-8.731-3.337-12.068,0l-17.274,17.266c-3.337,3.337-3.337,8.731,0,12.068
			c1.664,1.664,3.849,2.501,6.034,2.501c2.176,0,4.361-0.836,6.034-2.501l17.274-17.266
			C109.832,368.194,109.832,362.8,106.495,359.463z"/>
	</g>
</g>
<g>
	<g>
		<path d="M129.522,382.49c-3.329-3.337-8.731-3.337-12.068,0l-17.274,17.266c-3.337,3.337-3.337,8.731,0,12.068
			c1.664,1.664,3.849,2.501,6.034,2.501s4.361-0.836,6.034-2.501l17.274-17.266C132.859,391.22,132.859,385.827,129.522,382.49z"/>
	</g>
</g>
<g>
	<g>
		<path d="M434.634,111.9l-34.54-34.548c-3.243-3.243-8.483-3.346-11.846-0.205L221.294,232.588
			c-1.69,1.579-2.671,3.772-2.714,6.094s0.862,4.557,2.501,6.188l46.053,46.053c1.605,1.604,3.772,2.501,6.034,2.501
			c0.051,0,0.102,0,0.154,0c2.313-0.043,4.515-1.024,6.094-2.714l155.432-166.954C437.98,120.383,437.886,115.151,434.634,111.9z
			 M272.946,272.606l-33.55-33.558l154.451-143.8l22.898,22.898L272.946,272.606z"/>
	</g>
</g>
<g>
	<g>
		<path d="M503.73,42.812l-34.54-34.548c-3.038-3.038-7.869-3.346-11.274-0.7l-51.814,40.3c-0.828,0.64-1.536,1.442-2.074,2.338
			L386.755,78.99c-2.014,3.363-1.485,7.664,1.28,10.429l34.54,34.548c1.639,1.639,3.824,2.501,6.034,2.501
			c1.511,0,3.03-0.393,4.387-1.229l28.787-17.274c0.905-0.538,1.698-1.246,2.347-2.074l40.3-51.805
			C507.076,50.689,506.777,45.85,503.73,42.812z M451.635,94.156l-21.703,13.024l-25.117-25.117l13.024-21.703l44.602-34.702
			l23.888,23.897L451.635,94.156z"/>
	</g>
</g>
<g>
	<g>
		<path d="M449.757,23.379L428.89,2.511c-3.329-3.337-8.74-3.337-12.068,0c-3.337,3.337-3.337,8.731,0,12.068l20.867,20.867
			c1.664,1.664,3.849,2.501,6.034,2.501s4.37-0.828,6.034-2.501C453.094,32.11,453.094,26.716,449.757,23.379z"/>
	</g>
</g>
<g>
	<g>
		<path d="M417.377,48.564l-17.274-17.266c-3.337-3.337-8.739-3.337-12.068,0c-3.337,3.337-3.337,8.731,0,12.068l17.266,17.266
			c1.664,1.664,3.849,2.501,6.034,2.501c2.185,0,4.37-0.828,6.042-2.501C420.714,57.295,420.714,51.901,417.377,48.564z"/>
	</g>
</g>
<g>
	<g>
		<path d="M509.483,83.112l-20.867-20.867c-3.329-3.337-8.74-3.337-12.068,0c-3.337,3.337-3.337,8.731,0,12.068l20.867,20.867
			c1.664,1.664,3.849,2.501,6.034,2.501s4.37-0.828,6.034-2.501C512.82,91.843,512.82,86.449,509.483,83.112z"/>
	</g>
</g>
<g>
	<g>
		<path d="M480.704,111.9L463.43,94.626c-3.328-3.337-8.731-3.337-12.068,0c-3.328,3.337-3.328,8.731,0,12.068l17.274,17.274
			c1.664,1.664,3.849,2.501,6.034,2.501c2.176,0,4.361-0.828,6.034-2.501C484.032,120.631,484.032,115.237,480.704,111.9z"/>
	</g>
</g>
<g>
	<g>
		<path d="M311.36,246.61c-1.468-2.134-3.823-3.491-6.401-3.687c-2.586-0.179-5.112,0.802-6.879,2.688l-25.117,26.986l-33.55-33.558
			l26.927-25.075c1.895-1.767,2.893-4.301,2.697-6.887c-0.196-2.586-1.553-4.942-3.695-6.41
			c-36.639-25.032-68.533-28.71-92.225-10.685c-5.906,4.498-10.873,10.455-14.765,17.701c-8.902,16.574-34.002,55.441-74.593,58.121
			c-23.112,1.536-44.858,11.214-61.227,27.285c-39.558,38.85-27.012,92.276,37.51,159.034
			c41.256,39.874,77.469,59.853,108.296,59.853c18.896,0,35.769-7.51,50.533-22.557c16.071-16.361,25.757-38.099,27.285-61.219
			c2.68-40.582,41.538-65.682,58.129-74.593c7.229-3.883,13.177-8.85,17.684-14.756C340.079,315.1,336.418,283.206,311.36,246.61z
			 M308.382,328.508c-3.021,3.96-7.126,7.348-12.187,10.079c-19.092,10.25-63.839,39.404-67.082,88.512
			c-1.255,19.032-9.226,36.929-22.429,50.38c-11.547,11.752-46.684,47.521-134.582-37.416
			c-85.158-88.103-49.381-123.231-37.629-134.77c13.451-13.212,31.348-21.174,50.388-22.438
			c49.117-3.243,78.262-47.99,88.513-67.073c2.731-5.087,6.119-9.183,10.071-12.196c7.161-5.462,15.149-7.656,23.393-7.656
			c13.425,0,27.516,5.855,39.788,13.075l-25.331,23.59c-1.698,1.579-2.671,3.772-2.714,6.094s0.862,4.549,2.501,6.188l46.053,46.053
			c1.639,1.639,3.934,2.612,6.188,2.501c2.313-0.043,4.515-1.024,6.094-2.714l23.641-25.399
			C314.714,285.084,322.796,309.612,308.382,328.508z"/>
	</g>
</g>
<g>
	<g>
		<path d="M329.24,225.273l-42.434-42.434c-3.337-3.337-8.739-3.337-12.068,0c-3.337,3.337-3.337,8.731,0,12.068l42.434,42.434
			c1.664,1.664,3.849,2.501,6.034,2.501c2.185,0,4.37-0.836,6.034-2.501C332.577,234.004,332.577,228.61,329.24,225.273z"/>
	</g>
</g>
<g>
	<g>
		<path d="M362.474,189.411l-39.951-39.951c-3.328-3.337-8.739-3.337-12.068,0c-3.337,3.337-3.337,8.731,0,12.068l39.951,39.951
			c1.664,1.664,3.849,2.501,6.034,2.501s4.37-0.828,6.034-2.501C365.811,198.142,365.811,192.748,362.474,189.411z"/>
	</g>
</g>
<g>
	<g>
		<path d="M395.784,153.642l-37.424-37.424c-3.329-3.337-8.74-3.337-12.068,0c-3.337,3.337-3.337,8.731,0,12.068l37.424,37.424
			c1.664,1.664,3.849,2.501,6.034,2.501s4.37-0.836,6.034-2.501C399.121,162.373,399.121,156.979,395.784,153.642z"/>
	</g>
</g>
<g>
</g>
<g>
</g>
<g>
</g>
<g>
</g>
<g>
</g>
<g>
</g>
<g>
</g>
<g>
</g>
<g>
</g>
<g>
</g>
<g>
</g>
<g>
</g>
<g>
</g>
<g>
</g>
<g>
</g>
</svg>
